<svg width="300" height="56" viewBox="0 0 300 56" fill="none" xmlns="http://www.w3.org/2000/svg">
<path d="M236.115 0.118652H253.467C253.467 0.118652 253.467 16.5762 268.096 16.5375C282.725 16.4988 282.647 0.118652 282.647 0.118652H300V54.6665H282.647V10.5717C282.647 10.5717 276.769 24.9674 268.096 28.3393C261.372 30.9537 253.467 23.5408 253.467 23.5408V54.6665H236.115V0.118652Z" fill="#AC271E"/>
<path d="M223.769 0.196289C226.001 0.196289 227.662 0.632419 228.752 1.50468C229.842 2.37693 230.386 3.52464 230.386 4.94779C230.386 6.32503 229.738 7.51865 228.44 8.52863C227.143 9.53861 226.105 10.0436 225.326 10.0436C224.548 10.0436 224.133 9.72224 224.081 9.07952C223.977 7.97773 223.147 6.9448 221.59 5.98073C220.085 5.01665 218.528 4.53462 216.919 4.53462C212.819 4.53462 208.641 6.25617 204.385 9.69929C200.13 13.1424 196.73 17.0905 194.187 21.5436C191.644 25.9967 190.373 29.7612 190.373 32.837C190.373 35.9129 191.099 38.4378 192.553 40.4119C194.058 42.34 196.237 43.3041 199.092 43.3041C203.659 43.3041 208.615 39.7462 213.961 32.6304C216.452 29.3709 218.969 24.5965 221.512 18.3071C222.446 16.0576 222.939 14.9099 222.991 14.864C223.406 13.8999 224.081 13.4179 225.015 13.4179C225.482 13.4179 225.845 13.5556 226.105 13.831C226.416 14.0606 226.572 14.359 226.572 14.7262C226.572 15.0476 226.494 15.4149 226.338 15.828C224.833 20.6943 224.081 25.354 224.081 29.8071C224.081 34.2143 224.937 37.8869 226.65 40.825C228.362 43.7632 230.646 45.2322 233.5 45.2322C234.954 45.2322 236.251 44.8191 237.393 43.9927C237.756 43.7173 238.119 43.5795 238.483 43.5795C239.105 43.5795 239.417 43.832 239.417 44.337C239.417 46.862 237.73 49.2262 234.357 51.4298C230.983 53.5875 227.636 54.6664 224.314 54.6664C218.969 54.6664 216.296 51.4069 216.296 44.8879C216.296 42.2712 216.659 39.333 217.386 36.0735C218.164 32.8141 218.554 31.1384 218.554 31.0466C218.554 30.9089 218.45 30.84 218.242 30.84C218.035 30.84 217.801 31.0466 217.542 31.4598C214.583 37.9787 210.535 43.4648 205.397 47.9179C200.259 52.325 195.537 54.5286 191.229 54.5286C186.922 54.5286 183.834 53.0596 181.965 50.1215C180.668 48.1474 180.019 45.7143 180.019 42.8221C180.019 37.1294 182.199 30.9548 186.558 24.2981C190.97 17.5955 196.627 11.9029 203.529 7.22025C210.483 2.53761 217.23 0.196289 223.769 0.196289Z" fill="#AC271E"/>
<path d="M156.867 0.118652C161.329 0.118652 165.349 0.767105 168.928 2.06401C172.508 3.36092 175.569 5.20253 178.11 7.58883C180.704 9.97514 182.701 12.8543 184.102 16.2262C185.503 19.5463 186.203 23.2555 186.203 27.3537C186.203 31.4519 185.503 35.187 184.102 38.559C182.701 41.879 180.678 44.7582 178.033 47.1964C175.387 49.5827 172.223 51.4243 168.539 52.7212C164.908 54.0181 160.836 54.6665 156.323 54.6665H132.979V0.118652H156.867ZM157.334 41.9828C159.202 41.9828 160.862 41.6456 162.314 40.9712C163.819 40.2449 165.116 39.2593 166.205 38.0143C167.346 36.7174 168.202 35.187 168.773 33.4232C169.395 31.6594 169.707 29.6881 169.707 27.5093C169.707 25.3305 169.395 23.3592 168.773 21.5954C168.15 19.7798 167.242 18.2235 166.049 16.9266C164.908 15.5778 163.533 14.5662 161.925 13.8918C160.317 13.2174 158.527 12.8802 156.556 12.8802H149.164V41.9828H157.334Z" fill="#AC271E"/>
<path d="M97.6408 0.118652H114.293L136.781 54.6665H119.506C119.506 54.6665 121.448 16.4746 105.5 16.304C89.4888 16.1328 91.0266 54.6665 91.0266 54.6665H74.3745L97.6408 0.118652Z" fill="#AC271E"/>
<path d="M18.7534 1.3714C18.7534 1.3714 35.0041 1.23316 35.3158 1.23316C35.6275 1.23316 35.9133 1.34837 36.1731 1.57878C36.4848 1.80919 36.6406 2.10873 36.6406 2.4774C36.6406 2.79998 36.3809 3.26081 35.8613 3.85989C33.3156 7.17786 30.8478 11.6709 28.458 17.3392C26.0681 23.0074 24.8732 27.9152 24.8732 32.0627C24.8732 36.164 24.6211 38.4139 27.3645 40.4522C28.9337 41.6182 30.221 42.1028 32.163 41.8783C33.9145 41.6759 34.7185 40.8004 36.1731 39.8038C39.2724 37.6802 40.1767 35.4997 42.4075 32.4766C46.0684 27.5154 44.4156 20.6989 50.2784 18.79C51.9406 18.2488 54.3567 18.2378 54.7204 18.2378C55.0841 18.2378 55.3958 18.353 55.6556 18.5834C55.9673 18.8138 56.1231 19.0212 56.1231 19.2055C56.1231 19.3898 55.9673 20.3115 55.6556 21.9705C55.3958 23.6295 55.2659 25.6802 55.2659 28.1226C55.2659 39.0442 58.9026 44.5051 66.1761 44.5051C68.514 44.5051 70.6441 43.906 72.5664 42.7078C74.4886 41.4636 75.9953 39.9428 77.0863 38.1456C79.3722 34.3207 80.5152 31.0028 80.5152 28.1917C80.5152 25.3345 79.8138 22.3161 78.4111 19.1364C77.0603 15.9567 75.0082 13.0995 72.2546 10.565C69.5531 7.98431 66.5917 6.64791 63.3706 6.55574C62.4355 6.50966 61.9679 6.18708 61.9679 5.588C61.9679 4.62026 62.903 3.49122 64.7734 2.2009C66.6437 0.864493 68.7218 0.196289 71.0078 0.196289C74.8004 0.196289 78.1254 1.9244 80.9828 5.38062C83.8922 8.79076 85.3468 13.7447 85.3468 20.2424C85.3468 24.6663 84.4896 29.0212 82.7752 33.3069C81.0607 37.5465 78.8787 41.1871 76.2291 44.2286C73.6314 47.224 70.748 49.6433 67.5788 51.4866C64.4616 53.376 61.5263 54.3207 58.7728 54.3207C56.9544 54.3207 55.3958 53.8829 54.097 53.0074C52.7981 52.1779 51.811 51.0949 51.1356 49.7585C49.9927 47.27 49.4212 44.6433 49.4212 41.8783C49.4212 39.4359 49.629 37.2931 50.0446 35.4498C50.4602 33.6064 50.7719 32.247 50.9798 31.3714C51.1876 30.4498 51.2915 29.9198 51.2915 29.7815C51.2915 29.5972 51.2655 29.5051 51.2135 29.5051C50.9018 29.5051 50.268 30.6535 49.7329 31.4405C48.9314 32.6193 48.6722 33.397 47.9405 34.6203C44.0482 41.1272 42.012 45.4349 35.7834 49.7585C32.0592 52.3437 29.6851 53.6676 25.2629 54.6663C15.7177 56.8222 4.9011 56.8741 1.01502 48.3477C-0.0390097 46.0351 0.0360864 44.4604 0.00192736 41.9191C-0.112287 33.4221 4.87324 24.613 8.70042 17.3392C12.1316 10.818 18.7534 1.3714 18.7534 1.3714Z" fill="#AC271E"/>
</svg>
